<?xml version="1.0" encoding="UTF-8"?><svg xmlns="http://www.w3.org/2000/svg" viewBox="0 0 244.01 244.01"><defs><style>.d{fill:#fff;}</style></defs><g id="a"/><g id="b"><g id="c"><path class="d" d="M244.01,122c0-27.75-9.57-54.91-26.94-76.48-2.95-3.66-8.3-4.23-11.95-1.29-3.66,2.95-4.23,8.3-1.29,11.95,15.17,18.83,23.18,41.59,23.18,65.82s-7.63,45.49-21.57,63.73c-3.46-1.62-7.32-2.53-11.39-2.53-14.85,0-26.93,12.08-26.93,26.92,0,2.19,.27,4.32,.76,6.35-14.22,6.91-29.95,10.53-45.89,10.53-57.9,0-105-47.1-105-105S64.1,17,122,17c15,0,29.48,3.09,43.04,9.19,4.28,1.92,9.31,.02,11.24-4.26,1.93-4.28,.02-9.31-4.26-11.24C156.25,3.6,139.42,0,122,0,54.73,0,0,54.73,0,122s54.73,122,122,122c19.14,0,38.01-4.52,54.98-13.08,4.65,3.82,10.6,6.12,17.07,6.12,14.85,0,26.92-12.08,26.92-26.93,0-4.55-1.14-8.84-3.14-12.61,16.91-21.45,26.18-48.07,26.18-75.51Zm-49.96,98.04c-5.47,0-9.93-4.45-9.93-9.93s4.45-9.92,9.93-9.92,9.92,4.45,9.92,9.92-4.45,9.93-9.92,9.93ZM122,43.73c-33.3,0-62.43,20.6-73.62,51.63-13.03,1.87-23.09,13.1-23.09,26.65s10.06,24.78,23.09,26.65c5.16,14.21,14.53,26.89,26.68,36,13.63,10.22,29.85,15.62,46.93,15.62,43.16,0,78.28-35.11,78.28-78.28S165.17,43.73,122,43.73ZM42.3,122c0-5.47,4.45-9.93,9.92-9.93s9.93,4.45,9.93,9.93-4.45,9.92-9.93,9.92-9.92-4.45-9.92-9.92Zm79.7,61.28c-25.14,0-47.21-14.97-56.62-37.8,8.21-4.62,13.77-13.41,13.77-23.48s-5.56-18.86-13.77-23.48c9.41-22.82,31.5-37.8,56.62-37.8,33.79,0,61.28,27.49,61.28,61.28s-27.49,61.28-61.28,61.28Zm0-95.91c-19.09,0-34.63,15.54-34.63,34.63s15.54,34.63,34.63,34.63,34.63-15.53,34.63-34.63-15.53-34.63-34.63-34.63Zm0,52.26c-9.72,0-17.63-7.91-17.63-17.63s7.91-17.63,17.63-17.63,17.63,7.91,17.63,17.63-7.91,17.63-17.63,17.63Zm53.96-102.58l19.95-24.94c2.93-3.67,8.28-4.26,11.95-1.33,3.67,2.93,4.26,8.28,1.33,11.95l-19.95,24.94,6.13,4.91-23.79,3.46-1.76-23.9,6.14,4.91Z"/></g></g></svg>